<svg id="visual" viewBox="0 0 960 540" width="960" height="540" xmlns="http://www.w3.org/2000/svg" xmlns:xlink="http://www.w3.org/1999/xlink" version="1.1"><rect x="0" y="0" width="960" height="540" fill="#140021"></rect><path d="M0 324L48 324L48 356L96 356L96 326L144 326L144 369L192 369L192 330L240 330L240 377L288 377L288 382L336 382L336 384L384 384L384 384L432 384L432 366L480 366L480 358L528 358L528 347L576 347L576 323L624 323L624 344L672 344L672 339L720 339L720 327L768 327L768 343L816 343L816 374L864 374L864 355L912 355L912 353L960 353L960 320L960 541L960 541L912 541L912 541L864 541L864 541L816 541L816 541L768 541L768 541L720 541L720 541L672 541L672 541L624 541L624 541L576 541L576 541L528 541L528 541L480 541L480 541L432 541L432 541L384 541L384 541L336 541L336 541L288 541L288 541L240 541L240 541L192 541L192 541L144 541L144 541L96 541L96 541L48 541L48 541L0 541Z" fill="#280340"></path><path d="M0 354L48 354L48 361L96 361L96 373L144 373L144 412L192 412L192 387L240 387L240 365L288 365L288 346L336 346L336 387L384 387L384 371L432 371L432 381L480 381L480 372L528 372L528 363L576 363L576 404L624 404L624 406L672 406L672 391L720 391L720 356L768 356L768 344L816 344L816 373L864 373L864 346L912 346L912 396L960 396L960 407L960 541L960 541L912 541L912 541L864 541L864 541L816 541L816 541L768 541L768 541L720 541L720 541L672 541L672 541L624 541L624 541L576 541L576 541L528 541L528 541L480 541L480 541L432 541L432 541L384 541L384 541L336 541L336 541L288 541L288 541L240 541L240 541L192 541L192 541L144 541L144 541L96 541L96 541L48 541L48 541L0 541Z" fill="#320350"></path><path d="M0 387L48 387L48 405L96 405L96 393L144 393L144 388L192 388L192 395L240 395L240 391L288 391L288 409L336 409L336 418L384 418L384 434L432 434L432 414L480 414L480 432L528 432L528 403L576 403L576 394L624 394L624 399L672 399L672 415L720 415L720 381L768 381L768 413L816 413L816 394L864 394L864 426L912 426L912 403L960 403L960 381L960 541L960 541L912 541L912 541L864 541L864 541L816 541L816 541L768 541L768 541L720 541L720 541L672 541L672 541L624 541L624 541L576 541L576 541L528 541L528 541L480 541L480 541L432 541L432 541L384 541L384 541L336 541L336 541L288 541L288 541L240 541L240 541L192 541L192 541L144 541L144 541L96 541L96 541L48 541L48 541L0 541Z" fill="#3c0261"></path><path d="M0 429L48 429L48 425L96 425L96 417L144 417L144 437L192 437L192 434L240 434L240 459L288 459L288 457L336 457L336 445L384 445L384 448L432 448L432 416L480 416L480 459L528 459L528 425L576 425L576 435L624 435L624 463L672 463L672 421L720 421L720 442L768 442L768 440L816 440L816 428L864 428L864 429L912 429L912 451L960 451L960 448L960 541L960 541L912 541L912 541L864 541L864 541L816 541L816 541L768 541L768 541L720 541L720 541L672 541L672 541L624 541L624 541L576 541L576 541L528 541L528 541L480 541L480 541L432 541L432 541L384 541L384 541L336 541L336 541L288 541L288 541L240 541L240 541L192 541L192 541L144 541L144 541L96 541L96 541L48 541L48 541L0 541Z" fill="#460273"></path><path d="M0 469L48 469L48 488L96 488L96 454L144 454L144 454L192 454L192 463L240 463L240 483L288 483L288 475L336 475L336 463L384 463L384 486L432 486L432 454L480 454L480 470L528 470L528 460L576 460L576 475L624 475L624 454L672 454L672 452L720 452L720 489L768 489L768 455L816 455L816 467L864 467L864 489L912 489L912 462L960 462L960 469L960 541L960 541L912 541L912 541L864 541L864 541L816 541L816 541L768 541L768 541L720 541L720 541L672 541L672 541L624 541L624 541L576 541L576 541L528 541L528 541L480 541L480 541L432 541L432 541L384 541L384 541L336 541L336 541L288 541L288 541L240 541L240 541L192 541L192 541L144 541L144 541L96 541L96 541L48 541L48 541L0 541Z" fill="#510185"></path><path d="M0 482L48 482L48 486L96 486L96 488L144 488L144 517L192 517L192 503L240 503L240 492L288 492L288 488L336 488L336 518L384 518L384 496L432 496L432 490L480 490L480 500L528 500L528 490L576 490L576 514L624 514L624 505L672 505L672 500L720 500L720 493L768 493L768 504L816 504L816 487L864 487L864 519L912 519L912 505L960 505L960 510L960 541L960 541L912 541L912 541L864 541L864 541L816 541L816 541L768 541L768 541L720 541L720 541L672 541L672 541L624 541L624 541L576 541L576 541L528 541L528 541L480 541L480 541L432 541L432 541L384 541L384 541L336 541L336 541L288 541L288 541L240 541L240 541L192 541L192 541L144 541L144 541L96 541L96 541L48 541L48 541L0 541Z" fill="#5b0097"></path></svg>