<svg id="visual" viewBox="0 0 960 540" width="960" height="540" xmlns="http://www.w3.org/2000/svg" xmlns:xlink="http://www.w3.org/1999/xlink" version="1.1"><path d="M0 55L192 60L384 77L576 77L768 55L960 71L960 0L768 0L576 0L384 0L192 0L0 0Z" fill="#390476"></path><path d="M0 233L192 233L384 217L576 217L768 195L960 239L960 69L768 53L576 75L384 75L192 58L0 53Z" fill="#0f3a8e"></path><path d="M0 303L192 303L384 303L576 298L768 271L960 320L960 237L768 193L576 215L384 215L192 231L0 231Z" fill="#005a98"></path><path d="M0 395L192 384L384 401L576 395L768 368L960 411L960 318L768 269L576 296L384 301L192 301L0 301Z" fill="#007391"></path><path d="M0 541L192 541L384 541L576 541L768 541L960 541L960 409L768 366L576 393L384 399L192 382L0 393Z" fill="#038373"></path></svg>